<svg xmlns="http://www.w3.org/2000/svg" xmlns:xlink="http://www.w3.org/1999/xlink" viewBox="0,0,256,256" width="30px" height="30px" fill-rule="nonzero"><g fill="#ffffff" fill-rule="nonzero" stroke="none" stroke-width="1" stroke-linecap="butt" stroke-linejoin="miter" stroke-miterlimit="10" stroke-dasharray="" stroke-dashoffset="0" font-family="none" font-weight="none" font-size="none" text-anchor="none" style="mix-blend-mode: normal"><g transform="scale(8.53333,8.53333)"><path d="M15.142,1.451v0c0.693,7.098 6.31,12.714 13.408,13.408v0c0.171,0.017 0.171,0.267 0,0.283v0c-7.098,0.693 -12.714,6.31 -13.408,13.408v0c-0.017,0.171 -0.267,0.171 -0.283,0v0c-0.693,-7.098 -6.31,-12.714 -13.408,-13.408v0c-0.171,-0.017 -0.171,-0.267 0,-0.283v0c7.098,-0.693 12.714,-6.31 13.408,-13.408v0c0.016,-0.172 0.266,-0.172 0.283,0z"></path></g></g></svg>